<svg xmlns="http://www.w3.org/2000/svg" width="16" height="16"><path fill="#fc7f7f" d="m7.972 6.333 7.78 7.78a.596.596 0 0 1 0 .844l-.795.794a.596.596 0 0 1-.844 0l-7.78-7.78a.596.596 0 0 1 0-.844l.794-.794a.596.596 0 0 1 .845 0M.249 8.028l7.78-7.78a.596.596 0 0 1 .844 0l2.218 2.219a.596.596 0 0 1 0 .844l-7.78 7.78a.596.596 0 0 1-.844 0L.249 8.873a.596.596 0 0 1 0-.845" style="stroke-width:1.71614;stroke-linecap:square;stroke-linejoin:round;fill-opacity:1"/><rect width=".027" height=".055" x="10.994" y="7.229" rx=".559" ry=".055" style="fill:#cd3838;fill-opacity:1;stroke:none;stroke-linecap:square;stroke-linejoin:round;stroke-opacity:1"/></svg>