<svg width="32" height="32" viewBox="0 0 32 32" fill="none" xmlns="http://www.w3.org/2000/svg">
<path fill-rule="evenodd" clip-rule="evenodd" d="M13.6289 0.179995C11.0871 0.574304 8.43862 1.70842 6.29886 3.31875C2.14424 6.44557 -0.335769 11.8584 0.0368371 16.9861C0.539039 23.8987 5.07367 29.5387 11.6894 31.4796C13.3521 31.9674 16.7783 32.1533 18.6844 31.8592C23.7394 31.0791 28.3083 27.6006 30.5458 22.8287C32.5367 18.5824 32.4788 13.0782 30.3999 8.95077C29.2943 6.75599 27.0276 4.13321 25.148 2.87411C21.6377 0.522616 17.5629 -0.430436 13.6289 0.179995ZM12.1255 1.89461C12.1671 1.96202 12.7665 1.95582 13.4576 1.88086C14.7815 1.73713 18.21 1.94494 18.9111 2.21124C19.1194 2.29043 19.7573 2.3725 20.3286 2.39351C20.9001 2.41451 21.5182 2.48464 21.7024 2.54948C21.8913 2.61583 22.0764 2.60373 22.1272 2.52182C22.1767 2.44187 22.2837 2.37643 22.3652 2.37643C22.6096 2.37643 22.0097 2.92353 21.4573 3.20449C21.1741 3.34852 19.7791 3.97573 18.3573 4.5981C11.6192 7.54764 11.8015 7.48839 11.391 6.86239C11.0671 6.36818 9.93419 3.75417 9.80157 3.19482C9.66547 2.62066 9.85707 2.33668 10.54 2.10061C11.158 1.88706 11.2022 1.88388 11.0933 2.0601C11.0466 2.13537 11.1505 2.16 11.3239 2.11466C11.5637 2.05194 11.591 2.00162 11.4376 1.90444C11.2983 1.81617 11.362 1.77582 11.6427 1.77416C11.8665 1.77295 12.0838 1.82706 12.1255 1.89461ZM9.48884 3.69885C9.68392 4.09362 10.1023 5.01614 10.4187 5.74869C11.1774 7.50577 11.1417 7.58073 9.14119 8.42693C8.29708 8.78406 7.19816 9.2621 6.69914 9.48926C6.20011 9.71641 5.14535 10.1734 4.35523 10.5046C1.99937 11.4922 1.80883 11.4999 2.86631 10.5644C3.91034 9.64069 4.65767 8.82593 4.65767 8.61162C4.65767 8.37389 5.64997 6.4906 5.95831 6.14284C6.0746 6.01166 6.17123 5.84163 6.17289 5.76501C6.1744 5.68853 6.51858 5.26354 6.93761 4.82072C7.35664 4.37805 7.67254 3.93598 7.63942 3.83835C7.5626 3.61135 8.417 2.99804 8.82393 2.98837C9.04653 2.98308 9.23404 3.18349 9.48884 3.69885ZM24.2168 3.5855C24.4392 3.83487 24.5759 4.0389 24.5209 4.0389C24.4657 4.0389 24.5457 4.17704 24.6986 4.34586C24.9555 4.62969 25.2286 5.74536 25.2464 6.584C25.2522 6.85559 25.3207 6.92028 25.541 6.8627C25.699 6.82144 25.8649 6.84713 25.91 6.91982C25.9549 6.99252 26.2605 7.02925 26.5893 7.00144C26.9179 6.97363 27.2956 7.0303 27.4287 7.12748C27.7989 7.39801 27.7621 7.41902 24.0894 9.028C21.3109 10.2454 21.2516 10.2656 20.9158 10.1127C20.6809 10.0057 20.3058 9.33298 19.6514 7.84537C18.7338 5.75911 18.6159 5.34501 18.8394 4.99377C18.9304 4.8508 21.6817 3.58308 22.6528 3.23684C23.2674 3.01769 23.8206 3.14102 24.2168 3.5855ZM18.0456 5.817C18.2637 5.97206 19.0652 7.91943 18.996 8.12663C18.9649 8.22003 18.465 8.48603 17.8852 8.71787C16.6763 9.20104 13.2712 10.6154 12.5967 10.9143C11.5838 11.3632 8.97318 12.3513 8.80004 12.3513C8.69811 12.3513 8.58757 12.4324 8.55446 12.5317C8.46448 12.8015 7.51074 10.6764 7.56215 10.3208C7.60812 10.0024 8.05709 9.78744 14.7138 6.897C17.4421 5.71241 17.7554 5.61085 18.0456 5.817ZM28.248 8.01419C28.248 8.32008 27.3402 9.47974 27.1007 9.47974C26.9018 9.47974 26.817 9.67304 26.876 9.99163C26.8896 10.0654 26.7713 10.2694 26.6128 10.445C26.4545 10.6206 26.2011 11.1179 26.0497 11.55C25.8982 11.9822 25.7079 12.2946 25.6269 12.2446C25.5457 12.1944 25.5244 12.2264 25.5796 12.3156C25.725 12.5509 25.0439 13.5465 24.7321 13.554C24.5739 13.5578 24.4675 13.6773 24.4675 13.8513C24.4675 14.1035 24.5629 14.1365 25.1858 14.0996C25.9083 14.0567 26.3642 13.9127 27.3407 13.4187C27.9767 13.097 28.4896 12.9653 29.4878 12.8676C30.1452 12.8032 30.2317 12.8272 30.1865 13.0615C30.1517 13.2427 29.4051 13.6557 27.8683 14.3441C24.8867 15.6796 24.383 15.9025 23.4849 16.2836C23.0692 16.46 22.5248 16.6958 22.2751 16.8075C19.2521 18.1594 18.961 18.2655 18.6564 18.1264C18.2419 17.9372 16.4137 13.8755 16.481 13.2932C16.5251 12.9094 16.8034 12.759 20.5358 11.1011C25.5356 8.88019 27.988 7.82104 28.1346 7.81892C28.1969 7.81801 28.248 7.90582 28.248 8.01419ZM6.7377 10.5755C6.88771 10.7629 8.45495 14.4044 8.64564 15.0085C8.71157 15.2178 8.65214 15.4072 8.46796 15.5738C8.18503 15.8296 4.55514 17.4765 2.57839 18.2458C1.5262 18.6552 1.48205 18.6604 1.48205 18.3719C1.48205 18.2064 1.68619 17.8671 1.93571 17.6177C2.18522 17.3683 2.38937 17.07 2.38937 16.9547C2.38937 16.2982 1.76256 13.668 1.5572 13.4629C0.928128 12.834 1.51879 12.3038 4.1662 11.1208C5.82887 10.3778 6.47049 10.2418 6.7377 10.5755ZM15.8877 13.7883C16.0391 14.2033 16.2739 14.7808 16.4097 15.0717C17.1861 16.7354 18.066 19.0952 17.9546 19.2143C17.7446 19.4387 17.265 18.7261 16.5909 17.1876C16.2449 16.3979 15.7244 15.294 15.4341 14.7347C15.0498 13.994 14.9331 13.6113 15.0044 13.3266C15.1593 12.7102 15.5735 12.9267 15.8877 13.7883ZM30.7156 13.9841C30.6193 14.0435 30.5181 14.1817 30.4906 14.2911C30.4632 14.4005 30.1856 14.7738 29.8736 15.1208C29.5618 15.4678 29.3065 15.9007 29.3065 16.0829C29.3065 16.2651 29.2385 16.4561 29.1553 16.5075C29.0721 16.5589 29.0041 16.7139 29.0041 16.8522C29.0041 17.1447 28.4344 19.1115 28.2441 19.4762C28.1387 19.678 28.2261 19.7529 28.7104 19.8758C29.0383 19.9589 29.3065 19.9757 29.3065 19.9128C29.3065 19.8501 29.4829 19.8324 29.6985 19.8737C29.942 19.9202 30.023 19.9902 29.9125 20.0585C29.8145 20.119 29.7484 20.2284 29.7656 20.3015C29.8068 20.4776 28.9624 20.8896 25.0834 22.5862C23.1236 23.4435 21.6912 23.9856 21.4588 23.9582C21.0176 23.9064 20.9938 23.8662 19.8402 21.2248C19.0195 19.3456 19.0032 19.2815 19.2484 18.9073C19.3873 18.6957 19.7506 18.4219 20.0561 18.2989C20.3616 18.1758 20.9047 17.9411 21.2633 17.7773C22.203 17.3482 26.2032 15.6123 28.3404 14.7064C29.3475 14.2795 30.3335 13.9179 30.5311 13.9031C30.7288 13.8882 30.8118 13.9246 30.7156 13.9841ZM14.7391 15.4566C15.0327 16.1177 15.4704 17.0913 15.7117 17.6201C16.4345 19.2045 16.4389 19.198 13.8065 20.3597C10.752 21.7076 6.14416 23.6986 5.19495 24.0808C4.20219 24.4806 3.81764 24.3748 4.34555 23.8472C4.52338 23.6694 4.62168 23.4482 4.56421 23.3552C4.5007 23.2524 4.52822 23.2286 4.63423 23.2942C4.73736 23.3578 4.80889 23.3067 4.80889 23.1698C4.80889 23.0421 4.97901 22.8262 5.18694 22.6901C5.56151 22.4448 5.70487 22.0239 5.41377 22.0239C5.22565 22.0239 4.7611 21.5665 4.41859 21.0441C4.26661 20.8124 4.07048 20.6826 3.94497 20.7306C3.78785 20.7909 3.75609 20.7324 3.82626 20.5116C3.90051 20.2777 3.82686 20.1743 3.49584 20.0484C3.2616 19.9591 2.88265 19.8808 2.654 19.8741C2.42536 19.8675 2.23815 19.8043 2.23815 19.7339C2.23815 19.6635 2.13607 19.6057 2.01132 19.6057C1.56234 19.6057 1.79749 19.1995 2.42717 18.8874C3.56162 18.3253 12.2338 14.5506 13.1193 14.2335C13.4067 14.1307 13.7685 14.0934 13.9235 14.1507C14.0861 14.2107 14.4307 14.7625 14.7391 15.4566ZM18.4187 19.6902C18.4187 19.9396 18.1798 19.9817 18.0406 19.7569C17.9172 19.5574 18.0981 19.2744 18.2779 19.3855C18.3553 19.4333 18.4187 19.5704 18.4187 19.6902ZM16.4165 20.248C16.5 20.352 16.9907 21.3891 17.5068 22.5528C18.2483 24.2248 18.4185 24.7455 18.3186 25.0345C18.2167 25.3286 17.7036 25.612 15.6967 26.4828C14.3244 27.0783 12.8899 27.7092 12.5089 27.885C11.4239 28.3856 10.2223 28.852 9.69496 28.977C9.15934 29.1039 9.00887 28.9413 9.20455 28.4471C9.40371 27.944 9.35985 27.6115 9.08085 27.511C8.93523 27.4585 8.63566 27.2906 8.41488 27.1378C8.1941 26.9852 7.90481 26.8602 7.77219 26.8602C7.63942 26.8602 7.53085 26.7878 7.53085 26.6992C7.53085 26.5047 6.63063 25.7267 6.40562 25.7267C6.31746 25.7267 6.20858 25.6774 6.16337 25.6172C6.11815 25.5569 5.73602 25.4956 5.31411 25.4806C4.65207 25.4572 4.5568 25.4156 4.61926 25.1773C4.70712 24.8413 5.04403 24.6755 10.8577 22.1091C13.3944 20.9892 15.6486 20.0699 15.8673 20.0661C16.0858 20.0623 16.3329 20.1442 16.4165 20.248ZM29.7458 21.3816C29.3734 21.8675 28.1739 22.9901 28.059 22.9602C27.9965 22.944 27.9617 22.9816 27.9814 23.044C28.0686 23.32 25.9213 25.9534 25.609 25.9534C25.4761 25.9534 24.5541 26.6087 24.4927 26.7468C24.4649 26.8091 24.3751 26.8602 24.2928 26.8602C24.2107 26.8602 24.0539 26.9453 23.9443 27.0491C23.8348 27.1531 23.6033 27.3548 23.43 27.4975C23.2567 27.6402 23.0732 27.9462 23.0224 28.1776C22.7643 29.3531 22.6155 29.2612 21.7357 27.3829C20.7907 25.3655 20.7759 25.0104 21.6194 24.5803C22.7185 24.0201 29.5244 21.1181 29.7408 21.1175C29.9149 21.1172 29.9158 21.1597 29.7458 21.3816ZM20.1447 25.6367C20.2882 25.7951 20.7109 26.6847 21.0839 27.6136C21.8924 29.6258 21.8556 29.7944 20.6741 29.4881C20.0233 29.3194 19.7748 29.3227 19.0547 29.5103C18.0178 29.7802 16.1858 29.7833 14.5633 29.5179C13.7071 29.3779 13.0056 29.3592 12.16 29.4536C11.5031 29.5271 10.8268 29.5433 10.657 29.4893C10.3711 29.3986 10.3809 29.3741 10.7921 29.1554C11.9301 28.55 19.2867 25.3668 19.5672 25.3583C19.7414 25.3531 20.0014 25.4783 20.1447 25.6367Z" fill="white"/>
</svg>
